<?xml version="1.0" standalone="no"?>
<!DOCTYPE svg PUBLIC "-//W3C//DTD SVG 20010904//EN"
 "http://www.w3.org/TR/2001/REC-SVG-20010904/DTD/svg10.dtd">
<svg version="1.0" xmlns="http://www.w3.org/2000/svg"
 width="288.000000pt" height="180.000000pt" viewBox="0 0 288.000000 180.000000"
 preserveAspectRatio="xMidYMid meet">

<g transform="translate(0.000000,180.000000) scale(0.100000,-0.100000)"
fill="#000000" stroke="none">
<path d="M0 900 l0 -900 1440 0 1440 0 0 900 0 900 -1440 0 -1440 0 0 -900z
m1563 688 c0 -62 -25 -103 -119 -193 -78 -75 -84 -83 -84 -121 0 -28 10 -57
35 -99 20 -32 34 -60 31 -62 -7 -7 -99 102 -113 136 -25 59 1 104 109 187 83
65 118 115 118 173 0 34 3 42 12 33 6 -6 11 -31 11 -54z m87 -143 c0 -2 -12
-11 -27 -19 -16 -8 -49 -33 -75 -56 -56 -49 -60 -75 -23 -135 13 -22 25 -52
25 -67 0 -27 -43 -88 -63 -88 -8 0 -7 4 1 12 20 20 14 55 -18 105 -60 94 -25
166 112 228 54 24 68 29 68 20z m134 -356 c63 -50 5 -139 -114 -174 -15 -4 -7
5 22 23 53 35 83 82 74 118 -7 26 -49 49 -73 40 -8 -3 -11 -1 -8 4 11 17 71
11 99 -11z m-521 -6 c-49 -17 -54 -30 -17 -39 26 -7 301 1 364 11 l35 5 -33
-15 c-102 -47 -511 -40 -463 8 16 16 100 45 131 45 19 0 15 -3 -17 -15z m7
-117 c0 -21 116 -31 219 -18 61 7 92 7 106 -1 63 -34 -261 -58 -337 -24 -43
18 -44 20 -22 41 19 20 34 20 34 2z m180 -123 c81 5 111 3 125 -7 17 -12 15
-14 -21 -27 -59 -21 -230 -18 -271 4 -37 19 -41 32 -17 45 11 6 27 4 47 -6 24
-12 52 -14 137 -9z m-269 -56 c-108 -29 -37 -56 164 -64 197 -8 385 15 407 50
4 6 11 8 15 3 25 -25 -90 -61 -250 -77 -180 -19 -465 9 -454 45 6 19 90 56
127 55 l35 -1 -44 -11z m614 -77 c-10 -11 -41 -27 -68 -35 -76 -23 -261 -38
-365 -30 -164 12 -147 20 46 21 191 0 297 14 360 47 39 21 48 20 27 -3z m-655
-290 c0 -172 -8 -208 -51 -231 -17 -9 -25 -8 -37 5 -10 10 -12 16 -4 16 6 0
18 13 27 30 11 22 15 65 15 185 l0 155 25 0 25 0 0 -160z m194 59 c25 -20 26
-24 26 -120 0 -91 -2 -99 -19 -99 -11 0 -21 5 -23 11 -3 9 -9 9 -25 0 -27 -14
-68 -14 -94 -1 -14 8 -19 21 -19 49 0 49 25 72 85 79 43 4 46 7 43 31 -3 25
-6 26 -60 26 -41 0 -58 3 -58 13 0 34 104 42 144 11z m131 -71 l28 -92 13 35
c6 20 18 61 25 92 9 43 17 57 30 57 10 0 20 -4 23 -9 6 -9 -25 -129 -50 -191
-15 -37 -20 -41 -47 -38 -29 3 -31 7 -63 113 -19 61 -34 113 -34 118 0 4 11 7
23 7 21 0 27 -10 52 -92z m305 72 c17 -17 20 -33 20 -120 0 -80 -3 -100 -14
-100 -8 0 -18 5 -21 10 -4 7 -12 7 -25 0 -50 -27 -120 0 -120 46 0 52 39 84
105 84 28 0 35 4 35 19 0 30 -25 43 -75 39 -25 -2 -45 0 -45 4 0 5 0 11 -1 16
0 10 38 20 84 21 25 1 44 -6 57 -19z"/>
<path d="M1235 354 c-34 -35 5 -78 49 -54 19 9 26 22 26 42 0 24 -4 28 -29 28
-16 0 -37 -7 -46 -16z"/>
<path d="M1672 358 c-19 -19 -14 -56 8 -63 30 -9 70 20 70 50 0 22 -5 25 -33
25 -18 0 -38 -5 -45 -12z"/>
</g>
</svg>
