<?xml version="1.0" standalone="no"?>
<!DOCTYPE svg PUBLIC "-//W3C//DTD SVG 20010904//EN"
 "http://www.w3.org/TR/2001/REC-SVG-20010904/DTD/svg10.dtd">
<svg version="1.0" xmlns="http://www.w3.org/2000/svg"
 width="512.000000pt" height="512.000000pt" viewBox="0 0 512.000000 512.000000"
 preserveAspectRatio="xMidYMid meet">

<g transform="translate(0.000000,512.000000) scale(0.100000,-0.100000)"
fill="#000000" stroke="none">
<path d="M2450 3835 c-14 -8 -34 -14 -45 -15 -12 0 -26 -5 -32 -11 -20 -20
-127 -59 -160 -59 -23 0 -33 -6 -38 -20 -10 -31 -93 -90 -128 -90 -20 0 -42
-11 -68 -34 -27 -26 -54 -38 -98 -47 -58 -12 -59 -13 -44 -35 13 -20 13 -24
-4 -38 -92 -80 -174 -146 -214 -173 -26 -18 -55 -43 -64 -56 -23 -36 -45 -130
-45 -195 0 -32 -9 -90 -20 -130 -11 -39 -20 -100 -20 -136 0 -74 45 -239 89
-331 63 -128 94 -209 101 -263 5 -32 15 -109 24 -172 l17 -115 -38 -74 c-36
-70 -38 -78 -37 -165 1 -63 10 -123 28 -196 15 -58 34 -141 41 -184 16 -89 32
-119 72 -138 31 -15 46 -42 98 -172 19 -50 48 -104 64 -120 16 -17 36 -44 44
-61 8 -16 29 -47 46 -69 26 -32 31 -48 31 -91 0 -38 -5 -56 -18 -68 -10 -10
-22 -17 -26 -17 -17 0 -172 -73 -220 -104 -28 -18 -69 -44 -91 -58 -55 -35
-238 -183 -368 -298 l-107 -95 291 -3 292 -2 15 22 c9 13 47 54 85 92 102 101
121 149 122 298 1 97 4 120 18 136 10 11 20 37 23 58 9 64 11 66 37 41 29 -30
88 -51 202 -71 141 -25 207 -28 393 -17 l172 9 103 47 c56 25 116 52 133 60
35 15 163 124 241 204 57 59 56 59 69 -24 8 -48 8 -47 15 45 5 66 17 121 38
180 17 47 31 103 31 125 0 49 26 175 39 188 5 5 30 -5 60 -23 31 -19 58 -29
69 -26 40 13 79 71 111 164 l31 93 -10 154 c-7 107 -17 172 -31 217 -36 106
-31 160 30 348 l55 165 -2 205 c-2 256 -8 290 -58 360 -65 91 -124 143 -221
193 -76 39 -95 54 -117 91 -33 57 -33 96 0 135 37 44 27 79 -31 108 -38 18
-49 20 -80 10 -35 -10 -38 -9 -70 26 -19 20 -40 37 -48 37 -21 0 -87 76 -87
99 0 32 -17 34 -85 10 l-64 -23 -28 20 c-50 37 -92 54 -141 58 -26 2 -59 8
-73 14 -15 6 -57 10 -95 9 -38 -1 -94 2 -124 6 -40 5 -62 3 -80 -8z m-260
-305 c0 -5 -14 -10 -31 -10 -17 0 -28 4 -24 10 3 6 17 10 31 10 13 0 24 -4 24
-10z m450 -127 c19 -5 12 -9 -40 -19 -69 -15 -80 -13 -60 11 13 16 58 19 100
8z m209 -208 c276 -50 315 -68 452 -207 106 -109 107 -111 194 -371 l46 -138
5 -237 c2 -130 9 -264 15 -297 5 -33 14 -85 19 -115 4 -30 13 -68 19 -83 15
-39 14 -69 -4 -103 -8 -16 -15 -35 -15 -41 0 -22 19 -14 34 15 12 23 20 27 58
27 l43 0 -2 65 c-4 86 -16 111 -64 133 -22 11 -46 32 -54 47 -16 30 -20 97 -7
116 13 20 113 104 123 104 6 0 9 -16 7 -37 -3 -31 -9 -40 -40 -57 -21 -11 -38
-26 -38 -35 0 -11 5 -9 20 7 11 12 26 19 34 16 19 -7 62 -158 82 -286 l16
-106 -32 -101 c-44 -140 -85 -170 -156 -116 -39 30 -53 72 -44 132 4 24 3 43
-1 43 -9 0 -24 -50 -34 -115 -4 -22 -15 -65 -26 -96 -10 -30 -23 -90 -29 -132
-11 -85 -40 -153 -103 -235 -29 -39 -45 -51 -58 -47 -12 4 -22 -1 -30 -17 -17
-33 -81 -98 -97 -98 -10 0 -12 8 -8 27 3 16 2 34 -3 42 -13 19 -25 -22 -16
-56 7 -29 -17 -63 -46 -63 -10 0 -21 -5 -24 -10 -15 -25 -34 -6 -49 50 -16 55
-36 73 -36 32 0 -9 -5 -24 -10 -32 -8 -12 -12 -11 -32 7 l-23 21 -35 -29 c-38
-32 -60 -37 -60 -14 0 19 -29 20 -36 1 -9 -23 -32 -27 -50 -9 -15 15 -17 15
-25 1 -5 -10 -17 -14 -28 -11 -11 3 -30 -2 -42 -11 -17 -11 -26 -13 -36 -5
-10 9 -18 6 -32 -12 -19 -24 -19 -24 -40 -5 -17 15 -24 17 -33 8 -17 -17 -38
-15 -38 3 0 16 -12 20 -23 8 -4 -3 -40 -8 -79 -10 -65 -4 -74 -2 -89 18 l-17
22 -7 -22 c-7 -22 -7 -22 -27 -4 -16 14 -38 18 -111 19 -84 0 -137 13 -137 32
0 4 -20 31 -44 61 -25 30 -52 75 -61 100 -10 25 -32 82 -50 126 -29 73 -67
212 -95 357 -6 32 -16 60 -21 63 -13 8 -11 -10 7 -80 32 -128 55 -258 46 -267
-19 -19 -44 32 -57 119 -7 48 -18 99 -24 113 -16 39 -41 177 -41 227 0 25 6
66 14 92 8 25 24 75 35 111 21 66 23 105 18 565 -1 99 18 159 82 257 26 40 64
104 86 142 55 99 108 153 190 192 38 19 79 34 91 34 12 0 82 29 156 64 142 69
276 113 347 115 23 0 104 -10 180 -24z m991 -333 c0 -7 -4 -10 -10 -7 -5 3
-10 16 -10 28 0 18 2 19 10 7 5 -8 10 -21 10 -28z m-180 -1152 c0 -19 -17 -36
-26 -27 -3 2 -2 16 2 31 7 28 24 26 24 -4z"/>
<path d="M2775 2597 c-76 -20 -135 -56 -135 -82 0 -28 48 -35 173 -24 133 12
259 5 322 -17 83 -29 96 -13 38 42 -80 74 -115 88 -237 91 -67 1 -131 -3 -161
-10z"/>
<path d="M1980 2514 c-90 -19 -115 -31 -151 -72 -44 -49 -59 -92 -58 -159 l0
-58 16 50 c16 54 48 94 103 128 30 19 60 24 198 33 91 6 168 16 174 22 19 19
-18 50 -73 61 -65 14 -129 13 -209 -5z"/>
<path d="M2822 2341 c-50 -17 -88 -41 -66 -41 5 0 35 9 67 20 101 36 177 21
267 -51 57 -46 60 -30 4 20 -78 68 -172 86 -272 52z"/>
<path d="M2559 2244 c23 -28 55 -72 69 -99 38 -68 109 -107 196 -106 92 1 160
19 202 52 38 30 31 41 -10 14 -30 -20 -132 -30 -178 -17 -42 11 -52 0 -20 -24
28 -22 -2 -16 -75 15 -62 26 -70 33 -95 82 -32 61 -55 87 -100 113 -32 20 -32
19 11 -30z"/>
<path d="M2789 2265 c-59 -25 -124 -78 -115 -93 3 -5 69 -13 146 -17 124 -6
144 -5 167 10 26 17 60 17 161 -1 45 -9 41 11 -5 27 -21 6 -60 26 -88 44 -98
62 -172 70 -266 30z m54 -49 c7 -17 -11 -36 -35 -36 -19 0 -22 8 -12 34 8 20
40 21 47 2z"/>
<path d="M2020 2261 c-49 -15 -110 -52 -125 -75 -9 -13 -15 -36 -13 -52 1 -16
-4 -39 -11 -52 -10 -18 -9 -23 3 -28 8 -3 24 0 36 6 25 13 98 27 205 39 39 5
86 14 105 21 19 7 41 14 48 16 21 6 13 41 -13 58 -14 9 -25 23 -25 32 0 34
-136 57 -210 35z m104 -20 c6 -10 -16 -21 -42 -21 -26 0 -135 -55 -156 -79
-22 -24 -36 -27 -36 -7 0 45 113 116 186 116 24 0 45 -4 48 -9z"/>
<path d="M2351 2235 c-42 -107 -62 -133 -135 -176 -72 -43 -106 -50 -286 -59
-13 0 -13 -1 0 -10 22 -15 162 -12 206 4 47 17 139 75 176 111 29 28 62 114
55 142 -3 14 -7 11 -16 -12z"/>
<path d="M2736 1845 c4 -16 10 -37 15 -45 7 -12 8 -11 8 5 0 11 -6 31 -14 45
l-15 25 6 -30z"/>
<path d="M2543 1763 c-13 -2 -30 -14 -38 -26 -18 -26 -20 -46 -3 -29 17 17 74
15 113 -4 35 -16 120 -16 120 1 0 6 -18 12 -40 15 -22 3 -51 12 -65 21 -31 21
-58 27 -87 22z"/>
<path d="M2306 1708 c-22 -43 -20 -51 7 -34 12 8 36 16 52 18 38 4 44 20 14
35 -38 20 -56 15 -73 -19z"/>
<path d="M2517 1615 c-27 -24 -49 -29 -152 -29 -20 0 -37 -9 -53 -28 -12 -14
-37 -30 -55 -33 -34 -8 -97 -60 -97 -82 0 -20 14 -16 41 13 13 15 53 39 87 55
51 23 78 29 133 29 45 0 81 6 101 16 55 29 146 15 260 -39 53 -26 99 -51 103
-57 3 -5 16 -10 27 -10 l21 0 -21 23 c-11 12 -36 29 -54 38 -116 58 -188 89
-220 94 -21 4 -42 13 -49 21 -17 20 -40 17 -72 -11z"/>
<path d="M2886 1596 c3 -8 13 -17 22 -21 13 -5 13 -2 -3 15 -21 24 -26 25 -19
6z"/>
<path d="M2750 1440 c14 -10 21 -22 17 -26 -4 -5 -81 -9 -170 -10 -89 -1 -184
-5 -212 -8 -27 -2 -71 -7 -96 -10 -48 -4 -129 -40 -129 -55 0 -14 40 -20 66
-11 13 5 24 14 24 19 0 5 8 12 18 16 19 8 176 22 355 31 113 6 119 6 142 -16
22 -21 122 -47 134 -35 9 9 -33 46 -73 64 -23 10 -50 28 -60 40 -11 11 -24 21
-30 21 -6 0 0 -9 14 -20z"/>
<path d="M2100 1411 c-6 -12 -7 -21 -1 -21 10 0 24 30 17 37 -2 3 -9 -5 -16
-16z"/>
<path d="M2380 1180 c-28 -8 -22 -12 52 -29 64 -15 94 -14 130 5 24 12 28 18
17 25 -17 10 -164 10 -199 -1z"/>
<path d="M3080 800 c0 -5 5 -10 10 -10 6 0 10 5 10 10 0 6 -4 10 -10 10 -5 0
-10 -4 -10 -10z"/>
<path d="M3489 3763 c-6 -15 -18 -42 -26 -60 -15 -31 -12 -63 5 -63 4 0 23 16
42 35 31 32 33 37 24 72 -11 46 -30 53 -45 16z"/>
<path d="M3422 694 c-1 -49 2 -94 7 -99 4 -6 14 -32 20 -59 16 -66 59 -147
121 -231 69 -93 78 -111 95 -202 l15 -78 -5 72 c-4 57 -2 71 8 67 13 -5 91
-117 103 -148 5 -14 33 -16 226 -16 l221 0 -50 39 c-27 22 -102 101 -168 176
-203 234 -303 314 -436 349 -92 24 -139 46 -144 70 -3 11 -6 50 -8 86 -3 54
-3 50 -5 -26z"/>
<path d="M2312 497 c34 -28 91 -51 85 -34 -2 6 -28 22 -58 34 l-54 23 27 -23z"/>
</g>
</svg>
